# xmcd CD database file
#
# Track frame offsets:
#	150
#	20669
#	39245
#	61552
#	84113
#	113508
#	134796
#	146862
#	166140
#	179903
#	200524
#	213845
#
# Disc length: 3035 seconds
#
# Revision: 0
# Processed by: cddbd v1.5.1PL0 Copyright (c) Steve Scherf et al.
# Submitted via: CDex 1.60beta1
#
DISCID=a40bd90c
DTITLE=Hatrack Gallagher - It's All The Blues To Me
DYEAR=1999
DGENRE=Blues
TTITLE0=Up The Line
TTITLE1=Indiana
TTITLE2=Nica's Dream
TTITLE3=My One And Only Love
TTITLE4=Harlem Nocturne
TTITLE5=Too Young To Die
TTITLE6=C Jam Blues
TTITLE7=Tell Me Mama
TTITLE8=Pass The Ha
TTITLE9=Pete Kelly's Blues
TTITLE10=Peach Tree
TTITLE11=It Don't Mean A Thing
EXTD=YEAR: 1999
EXTT0=
EXTT1=
EXTT2=
EXTT3=
EXTT4=
EXTT5=
EXTT6=
EXTT7=
EXTT8=
EXTT9=
EXTT10=
EXTT11=
PLAYORDER=
